<?xml version="1.0" encoding="UTF-8" standalone="no"?>
<svg
   xmlns:dc="http://purl.org/dc/elements/1.1/"
   xmlns:cc="http://creativecommons.org/ns#"
   xmlns:rdf="http://www.w3.org/1999/02/22-rdf-syntax-ns#"
   xmlns:svg="http://www.w3.org/2000/svg"
   xmlns="http://www.w3.org/2000/svg"
   width="900mm"
   height="157mm"
   viewBox="0 0 900 157"
   version="1.1"
   id="svg8">
  <defs
     id="defs2">
    <filter
       style="color-interpolation-filters:sRGB"
       id="filter2540"
       x="-0.066793993"
       width="1.133588"
       y="-0.13623527"
       height="1.2724705">
      <feGaussianBlur
         stdDeviation="0.23956366"
         id="feGaussianBlur2542" />
    </filter>
    <filter
       style="color-interpolation-filters:sRGB"
       id="filter2552"
       x="-0.033281434"
       width="1.0665629"
       y="-0.067881934"
       height="1.1357639">
      <feGaussianBlur
         stdDeviation="0.2037553"
         id="feGaussianBlur2554" />
    </filter>
    <filter
       style="color-interpolation-filters:sRGB"
       id="filter2564"
       x="-0.07822299"
       width="1.156446"
       y="-0.14964497"
       height="1.2992899">
      <feGaussianBlur
         stdDeviation="0.18461534"
         id="feGaussianBlur2566" />
    </filter>
    <filter
       style="color-interpolation-filters:sRGB"
       id="filter2580"
       x="-0.21999091"
       width="1.4399818"
       y="-0.41149503"
       height="1.8229901">
      <feGaussianBlur
         stdDeviation="0.28138913"
         id="feGaussianBlur2582" />
    </filter>
    <filter
       style="color-interpolation-filters:sRGB"
       id="filter2584"
       x="-0.14834508"
       width="1.2966902"
       y="-0.29445213"
       height="1.5889043">
      <feGaussianBlur
         stdDeviation="0.2813893"
         id="feGaussianBlur2586" />
    </filter>
    <filter
       style="color-interpolation-filters:sRGB"
       id="filter2588"
       x="-0.11905566"
       width="1.2381113"
       y="-0.22929336"
       height="1.4585867">
      <feGaussianBlur
         stdDeviation="0.2813879"
         id="feGaussianBlur2590" />
    </filter>
    <filter
       style="color-interpolation-filters:sRGB"
       id="filter2592"
       x="-0.012019173"
       width="1.0240383"
       y="-0.19272719"
       height="1.3854544">
      <feGaussianBlur
         stdDeviation="0.52238011"
         id="feGaussianBlur2594" />
    </filter>
    <filter
       style="color-interpolation-filters:sRGB"
       id="filter2596"
       x="-0.013412261"
       width="1.0268245"
       y="-0.16905789"
       height="1.3381158">
      <feGaussianBlur
         stdDeviation="0.52238011"
         id="feGaussianBlur2598" />
    </filter>
    <filter
       style="color-interpolation-filters:sRGB"
       id="filter2600"
       x="-0.017799744"
       width="1.0355995"
       y="-0.20236723"
       height="1.4047345">
      <feGaussianBlur
         stdDeviation="0.52238011"
         id="feGaussianBlur2602" />
    </filter>
  </defs>
  <metadata
     id="metadata5">
    <rdf:RDF>
      <cc:Work
         rdf:about="">
        <dc:format>image/svg+xml</dc:format>
        <dc:type
           rdf:resource="http://purl.org/dc/dcmitype/StillImage" />
        <dc:title></dc:title>
      </cc:Work>
    </rdf:RDF>
  </metadata>
  <g
     id="layer1"
     style="display:none">
    <ellipse
       style="display:inline;opacity:1;fill:#711b23;fill-opacity:1;stroke:none;stroke-width:0.193856"
       id="path986-1"
       cx="-10.479628"
       cy="10.986012"
       rx="10.479628"
       ry="10.013988"
       transform="scale(-1,1)" />
    <ellipse
       style="opacity:1;fill:#aa0029;fill-opacity:1;stroke:none;stroke-width:0.194992"
       id="path986"
       cx="-10.520372"
       cy="10.131789"
       rx="10.479628"
       ry="10.131789"
       transform="scale(-1,1)" />
    <ellipse
       style="opacity:1;fill:none;fill-opacity:1;stroke:#800000;stroke-width:0.398132;stroke-miterlimit:4;stroke-dasharray:none"
       id="path986-9-1-7-4"
       cx="-9.5513954"
       cy="10.9934"
       transform="matrix(-0.99634683,0.08539903,0.09131529,0.99582203,0,0)"
       rx="9.3860235"
       ry="9.0792656" />
    <g
       id="layer14"
       style="opacity:0.604502;mix-blend-mode:normal"
       transform="matrix(0.08072262,0,0,0.07839444,3.8800716,2.5905349)">
      <path
         style="fill:#a02c2c;stroke:none;stroke-width:0.264583px;stroke-linecap:butt;stroke-linejoin:miter;stroke-opacity:1"
         d="m 135.3542,135.59171 c 0.67463,2.28763 23.49067,-50.259383 12.98984,-88.67718 C 141.73169,22.722951 126.17031,0.26329829 83.550659,0.26329829 v 0 c -42.619644,0 -58.181032,22.45965271 -64.793378,46.65123171 -10.5008355,38.417797 12.315211,90.96481 12.989844,88.67718 z"
         id="path17483" />
      <path
         style="fill:#a02c40;fill-opacity:1;stroke:none;stroke-width:0.264583px;stroke-linecap:butt;stroke-linejoin:miter;stroke-opacity:1"
         d="m 22.498465,135.59171 h 4.975953 c 1.13279,0.11328 -23.7308995,-42.213573 -12.98984,-88.677185 0,0 -7.5255275,18.077822 -12.9549628,17.703382 -5.6823991,36.681143 6.2558903,53.086763 20.9688498,70.973803 z"
         id="path17525" />
      <path
         style="fill:#a02c40;fill-opacity:1;stroke:none;stroke-width:0.264583px;stroke-linecap:butt;stroke-linejoin:miter;stroke-opacity:1"
         d="m 144.60286,135.59171 h -4.97595 c -1.13279,0.11328 23.7309,-42.213573 12.98984,-88.677187 0,0 7.52553,18.077824 12.95496,17.703384 5.6824,36.681143 -6.25589,53.086763 -20.96885,70.973803 z"
         id="path17525-5" />
      <path
         id="path17557-3-7"
         style="opacity:1;fill:#921f1f;fill-opacity:1;stroke:none;stroke-width:0.264705px;stroke-linecap:butt;stroke-linejoin:miter;stroke-opacity:1"
         d="m 51.84523,17.165556 c -7.47572,0.08932 -15.265476,3.18198 -21.369755,12.618868 16.985819,-26.2591675 47.023485,0.697117 47.023485,0.697117 0,0.07421 5.203179,4.550627 12.232328,0 0,0 26.373572,-23.6675111 43.563752,-5.045171 -17.37394,-19.1545653 -43.563752,0.953948 -43.563752,0.953948 -7.029149,4.550627 -12.232328,0.07421 -12.232328,0 0,0 -12.327448,-9.383985 -25.65373,-9.224762 z m 81.44981,8.270814 c 1.15262,1.270752 2.26626,2.71435 3.33106,4.348054 -1.06165,-1.653828 -2.17564,-3.096368 -3.33106,-4.348054 z m -79.896417,6.208406 c -13.291124,1.313616 -13.024041,17.530172 -13.083439,17.482653 0,0 5.471734,-14.32574 12.535153,-14.32574 11.838686,0 16.415017,12.535151 16.415017,12.535151 0,0 -3.720152,-15.692064 -15.866731,-15.692064 z m 61.247417,0 c -12.14657,0 -15.866725,15.692064 -15.866725,15.692064 0,0 4.576325,-12.535151 16.415015,-12.535151 7.06342,0 12.53515,14.32574 12.53515,14.32574 -0.0594,0.04752 0.20768,-16.169037 -13.08344,-17.482653 z m -31.095252,9.033557 c -7.540027,0 -9.467638,7.468794 -9.467638,7.468794 0,0 1.927611,-6.4456 9.467638,-6.4456 7.540027,0 9.467122,6.4456 9.467122,6.4456 0,0 -1.927095,-7.468794 -9.467122,-7.468794 z m -40.921016,4.706689 c 0,0 -0.827508,1.773994 -1.497584,3.941879 0,0 18.99177,4.601226 27.268619,-2.305285 L 67.892828,46.296594 C 55.327983,53.067289 42.629772,45.385022 42.629772,45.385022 Z m 82.784608,0 c 0,0 -12.69769,7.682267 -25.26254,0.911572 l -0.507977,0.725022 c 8.276847,6.906511 27.268617,2.305285 27.268617,2.305285 -0.67008,-2.167885 -1.4981,-3.941879 -1.4981,-3.941879 z M 74.08315,55.560111 c 0,0 0.423838,2.529306 -4.915464,3.959966 -7.119477,1.907656 -2.878375,10.649995 -2.878375,10.649995 0,0 -3.497993,-8.212656 3.621484,-10.120312 5.339299,-1.430661 4.172355,-4.489649 4.172355,-4.489649 z m 18.93476,0 c 0,0 -1.166945,3.058988 4.172355,4.489649 7.119475,1.907656 3.621485,10.120312 3.621485,10.120312 0,0 4.24109,-8.742339 -2.878379,-10.649995 -5.339308,-1.43066 -4.915461,-3.959966 -4.915461,-3.959966 z m -31.69884,9.451102 c 0,0 -30.288359,36.981587 -4.082954,63.896877 -19.393921,-25.9017 4.295343,-61.086195 4.295343,-61.086195 z m 44.76781,0 -0.21291,2.810682 c 0,0 23.68978,35.184495 4.29586,61.086195 26.20541,-26.91529 -4.08295,-63.896877 -4.08295,-63.896877 z m -41.55612,6.948413 c -0.638844,0.305509 -20.953629,27.91677 -4.517035,56.777414 0,0 -12.951024,-27.06728 4.532537,-56.771212 0,-0.009 -0.0054,-0.01105 -0.0155,-0.0062 z m 38.34443,0 c -0.0101,-0.0048 -0.0155,-0.0028 -0.0155,0.0062 17.48356,29.703934 4.53203,56.771214 4.53203,56.771214 16.43659,-28.860646 -3.87768,-56.471907 -4.51652,-56.777416 z m -22.891626,5.577957 c -4.745077,0.464727 -7.142199,1.980755 -7.142199,1.980755 l -0.07338,0.953947 c 0,0 2.39713,-2.127506 7.362343,-2.054137 0,0 0.220123,-0.440307 -0.146762,-0.880565 z m 7.779885,0 c -0.366884,0.440258 -0.146759,0.880565 -0.146759,0.880565 4.965211,-0.07337 7.362341,2.054137 7.362341,2.054137 l -0.07338,-0.953947 c 0,0 -2.397122,-1.516028 -7.142202,-1.980755 z" />
      <path
         style="fill:#000000;stroke:none;stroke-width:0.264583px;stroke-linecap:butt;stroke-linejoin:miter;stroke-opacity:1"
         d="m 54.191294,35.530525 c -8.902567,0 -5.418955,11.181967 -5.418955,11.181967 7.870386,3.741661 12.300167,0.559099 12.300167,0.559099 0,0 3.655643,-11.741066 -6.881212,-11.741066 z"
         id="path17619" />
      <path
         style="fill:#000000;stroke:none;stroke-width:0.264583px;stroke-linecap:butt;stroke-linejoin:miter;stroke-opacity:1"
         d="m 113.85327,35.530525 c 8.90256,0 5.41895,11.181967 5.41895,11.181967 -7.87038,3.741661 -12.30016,0.559099 -12.30016,0.559099 0,0 -3.65565,-11.741066 6.88121,-11.741066 z"
         id="path17619-3" />
      <path
         style="fill:#000000;stroke:none;stroke-width:0.264583px;stroke-linecap:butt;stroke-linejoin:miter;stroke-opacity:1"
         d="m 74.202837,62.496662 c -5.201127,-1.393638 -5.664441,4.559185 -5.664441,4.559185 2.348669,3.523 7.736797,2.48682 7.736797,2.48682 0,0 1.879643,-5.98707 -2.072356,-7.046005 z"
         id="path17735" />
      <path
         style="opacity:1;fill:#000000;stroke:none;stroke-width:0.264583px;stroke-linecap:butt;stroke-linejoin:miter;stroke-opacity:1"
         d="m 93.42476,62.682595 c 5.20112,-1.393643 5.66444,4.559182 5.66444,4.559182 -2.34867,3.523 -7.736792,2.48682 -7.736792,2.48682 0,0 -1.87964,-5.987069 2.072352,-7.046002 z"
         id="path17735-4" />
      <path
         style="fill:#000000;stroke:none;stroke-width:0.264583px;stroke-linecap:butt;stroke-linejoin:miter;stroke-opacity:1"
         d="m 99.13773,123.81352 c 0,0 9.01665,-29.958553 -3.92661,-43.919823 0,0 0.74058,6.04962 -3.139296,6.04962 -4.364855,0 -5.011505,-8.56805 -5.011505,-8.56805 -0.04821,0 -2.112996,-1.25382 -6.440027,0 0,0 -0.646645,8.56805 -5.0115,8.56805 -3.879872,0 -3.139294,-6.04962 -3.139294,-6.04962 -12.943261,13.96127 -3.926607,43.919823 -3.926607,43.919823 0,0 13.941826,4.46216 30.594839,0 z"
         id="path17757" />
      <path
         id="path17839-26"
         style="opacity:1;fill:#921f30;fill-opacity:1;stroke:none;stroke-width:0.264583px;stroke-linecap:butt;stroke-linejoin:miter;stroke-opacity:1"
         d="m 34.818104,123.28652 c -0.03385,0.0683 -5.015269,-2.99251 -7.680406,2.32337 -0.06072,0.0351 -2.470297,5.67614 -7.862341,3.97697 6.125219,4.1767 8.534792,-1.46438 8.595516,-1.49944 2.665136,-5.31588 7.646555,-2.25504 7.680406,-2.32337 5.725727,2.86659 8.51301,-2.22802 8.51301,-2.22802 0,0 -3.520458,2.61709 -9.246185,-0.24951 z M 18.820241,64.10064 c -0.05101,0.05666 -4.023369,-4.233271 -8.022377,0.167817 -0.06792,0.0173 -3.9084525,4.80051 -8.6431696,1.7112 4.7731581,5.67276 8.6136856,0.88964 8.6816116,0.87225 3.999008,-4.401087 7.971364,-0.11113 8.022377,-0.16781 4.741477,4.30345 8.798487,0.14837 8.798487,0.14837 0,0 -4.095451,1.57162 -8.836929,-2.731827 z m -0.113473,8.704377 c -0.05082,0.0568 -4.037382,-4.21991 -8.021776,0.19441 -0.06786,0.0175 -3.8925155,4.81344 -8.6374495,1.73985 4.791941,5.6569 8.6165885,0.86108 8.6844565,0.84346 3.984394,-4.41432 7.970952,-0.13756 8.021776,-0.19441 4.75572,4.28771 8.79893,0.1192 8.79893,0.1192 0,0 -4.090217,1.5852 -8.845937,-2.70251 z m -0.06371,9.35372 c -0.04613,0.0607 -4.360638,-3.88496 -7.980812,0.83266 -0.06625,0.0229 -3.4968005,5.10816 -8.4714473,2.42223 5.2272438,5.25729 8.6577953,0.1721 8.7240443,0.14913 3.620174,-4.71762 7.934677,-0.77194 7.980812,-0.83266 5.082094,3.89534 8.780475,-0.58194 8.780475,-0.58194 0,0 -3.950978,1.90592 -9.033072,-1.98942 z m 1.147292,8.85353 c -0.04246,0.0633 -4.582668,-3.62039 -7.917633,1.30298 -0.06478,0.0268 -3.1887205,5.30594 -8.3134455,2.91878 5.528884,4.939093 8.6528295,-0.34 8.7176045,-0.36685 3.334965,-4.92337 7.875168,-1.23964 7.917633,-1.30298 5.303476,3.5881 8.73072,-1.09998 8.73072,-1.09998 0,0 -3.831403,2.13615 -9.134879,-1.45195 z m 3.987287,8.91635 c -0.0402,0.0648 -4.707839,-3.45606 -7.8666,1.582173 -0.06378,0.0291 -2.999078,5.4154 -8.2050205,3.21097 5.7000985,4.74047 8.6353925,-0.6458 8.6991775,-0.67493 3.15876,-5.038233 7.826401,-1.51737 7.866599,-1.58217 5.427053,3.39829 8.686357,-1.40805 8.686357,-1.40805 0,0 -3.75346,2.2703 -9.180513,-1.127993 z m 2.582466,7.734653 c -0.03785,0.0662 -4.828677,-3.28511 -7.804842,1.86309 -0.0627,0.0314 -2.803068,5.5194 -8.084671,3.50297 5.866332,4.53313 8.6067,-0.95487 8.6694,-0.98627 2.976165,-5.1482 7.766992,-1.79689 7.804842,-1.86309 5.545359,3.20161 8.630313,-1.71846 8.630313,-1.71846 0,0 -3.669683,2.40337 -9.215042,-0.79824 z m 4.207775,7.86659 c -0.03785,0.0662 -4.828677,-3.28511 -7.804842,1.86309 -0.0627,0.0314 -2.803068,5.5194 -8.084671,3.50297 5.866332,4.53313 8.6067,-0.95487 8.6694,-0.98627 2.976165,-5.1482 7.766992,-1.79689 7.804842,-1.86309 5.545359,3.20161 8.630313,-1.71846 8.630313,-1.71846 0,0 -3.669683,2.40337 -9.215042,-0.79824 z" />
      <path
         id="path17839-26-9"
         style="fill:#921f30;fill-opacity:1;stroke:none;stroke-width:0.264583px;stroke-linecap:butt;stroke-linejoin:miter;stroke-opacity:1"
         d="m 131.8752,123.28652 c 0.0339,0.0683 5.01527,-2.99251 7.6804,2.32337 0.0607,0.0351 2.4703,5.67614 7.86234,3.97697 -6.12521,4.1767 -8.53479,-1.46438 -8.59551,-1.49944 -2.66514,-5.31588 -7.64656,-2.25504 -7.68041,-2.32337 -5.72572,2.86659 -8.51301,-2.22802 -8.51301,-2.22802 0,0 3.52046,2.61709 9.24619,-0.24951 z m 15.99786,-59.18588 c 0.051,0.05666 4.02337,-4.233271 8.02238,0.167817 0.0679,0.0173 3.90845,4.80051 8.64317,1.7112 -4.77316,5.67276 -8.61369,0.88964 -8.68161,0.87225 -3.99901,-4.401087 -7.97137,-0.11113 -8.02238,-0.16781 -4.74148,4.30345 -8.79849,0.14837 -8.79849,0.14837 0,0 4.09545,1.57162 8.83693,-2.731827 z m 0.11347,8.704377 c 0.0508,0.0568 4.03739,-4.21991 8.02178,0.19441 0.0679,0.0175 3.89252,4.81344 8.63745,1.73985 -4.79194,5.6569 -8.61659,0.86108 -8.68446,0.84346 -3.98439,-4.41432 -7.97095,-0.13756 -8.02177,-0.19441 -4.75572,4.28771 -8.79893,0.1192 -8.79893,0.1192 0,0 4.09021,1.5852 8.84593,-2.70251 z m 0.0637,9.35372 c 0.0461,0.0607 4.36064,-3.88496 7.98082,0.83266 0.0662,0.0229 3.4968,5.10816 8.47144,2.42223 -5.22724,5.25729 -8.65779,0.1721 -8.72404,0.14913 -3.62018,-4.71762 -7.93468,-0.77194 -7.98081,-0.83266 -5.0821,3.89534 -8.78048,-0.58194 -8.78048,-0.58194 0,0 3.95098,1.90592 9.03307,-1.98942 z m -1.14729,8.85353 c 0.0425,0.0633 4.58267,-3.62039 7.91763,1.30298 0.0648,0.0268 3.18873,5.30594 8.31345,2.91878 -5.52888,4.939093 -8.65283,-0.34 -8.7176,-0.36685 -3.33497,-4.92337 -7.87517,-1.23964 -7.91764,-1.30298 -5.30347,3.5881 -8.73072,-1.09998 -8.73072,-1.09998 0,0 3.83141,2.13615 9.13488,-1.45195 z m -3.98729,8.91635 c 0.0402,0.0648 4.70784,-3.45606 7.8666,1.582173 0.0638,0.0291 2.99908,5.4154 8.20503,3.21097 -5.7001,4.74047 -8.6354,-0.6458 -8.69918,-0.67493 -3.15876,-5.038233 -7.8264,-1.51737 -7.8666,-1.58217 -5.42705,3.39829 -8.68636,-1.40805 -8.68636,-1.40805 0,0 3.75346,2.2703 9.18051,-1.127993 z m -2.58246,7.734653 c 0.0379,0.0662 4.82868,-3.28511 7.80484,1.86309 0.0627,0.0314 2.80307,5.5194 8.08467,3.50297 -5.86633,4.53313 -8.6067,-0.95487 -8.6694,-0.98627 -2.97616,-5.1482 -7.76699,-1.79689 -7.80484,-1.86309 -5.54536,3.20161 -8.63031,-1.71846 -8.63031,-1.71846 0,0 3.66968,2.40337 9.21504,-0.79824 z m -4.20778,7.86659 c 0.0378,0.0662 4.82868,-3.28511 7.80485,1.86309 0.0627,0.0314 2.80306,5.5194 8.08467,3.50297 -5.86634,4.53313 -8.6067,-0.95487 -8.6694,-0.98627 -2.97617,-5.1482 -7.767,-1.79689 -7.80485,-1.86309 -5.54535,3.20161 -8.63031,-1.71846 -8.63031,-1.71846 0,0 3.66968,2.40337 9.21504,-0.79824 z" />
      <path
         style="fill:#921f1f;fill-opacity:1;stroke:none;stroke-width:0.264583px;stroke-linecap:butt;stroke-linejoin:miter;stroke-opacity:1"
         d="m 15.288738,43.556965 c 0.325811,0.285085 5.923754,-20.896264 19.287728,-28.962035 0,0 -13.255771,-2.390982 -16.390889,2.66566 0,0 -1.112462,11.630278 -5.764573,14.259732 -1.387505,0.602071 -6.8949845,6.707032 -3.0418445,21.889382 0,0 1.0397555,-0.326187 5.9095785,-9.852739 z"
         id="path17989" />
      <path
         style="fill:#921f1f;fill-opacity:1;stroke:none;stroke-width:0.264583px;stroke-linecap:butt;stroke-linejoin:miter;stroke-opacity:1"
         d="m 152.22501,43.681404 c -0.32582,0.285085 -5.92376,-20.896264 -19.28773,-28.962035 0,0 13.25577,-2.390982 16.39089,2.66566 0,0 1.11246,11.630278 5.76457,14.259732 1.3875,0.602071 6.89498,6.707032 3.04184,21.889382 0,0 -1.03975,-0.326187 -5.90957,-9.852739 z"
         id="path17989-3" />
      <path
         style="fill:#470202;fill-opacity:1;stroke:none;stroke-width:0.261344px;stroke-linecap:butt;stroke-linejoin:miter;stroke-opacity:1"
         d="m 166.14513,135.45691 c -18.82069,-8.31935 -35.45238,-5.90215 -36.17018,-6.02477 -27.13743,2.10866 -30.83722,-5.61862 -30.83722,-5.61862 -3.427214,-4.72132 -6.755452,-9.77281 -11.783484,-11.13557 -2.169964,-0.37178 -3.04322,-0.60329 -6.283296,0 -6.815802,2.3028 -9.456535,7.02645 -12.528059,11.13557 0,0 -2.955212,7.72728 -30.092648,5.61862 -0.717794,0.12262 -18.094061,-2.29458 -36.9147608,6.02477 z"
         id="path18698" />
      <path
         style="fill:#340101;fill-opacity:1;stroke:none;stroke-width:0.264583px;stroke-linecap:butt;stroke-linejoin:miter;stroke-opacity:1"
         d="m 84.071583,112.19283 c -10.173656,0.34854 -15.215765,10.93124 -15.528692,11.62069 0.312931,0.89806 5.35504,-9.68464 15.528696,-10.03318 10.714306,0.21696 14.986383,11.46503 15.066143,10.03318 -0.07976,-0.15566 -4.351841,-11.40373 -15.066147,-11.62069 z"
         id="path18720" />
    </g>
    <text
       xml:space="preserve"
       style="font-size:2.51014px;line-height:1.25;font-family:Avenir;-inkscape-font-specification:Avenir;opacity:1;stroke-width:0.0627535"
       x="4.5610528"
       y="16.121237"
       id="text2350"
       transform="scale(1.0147405,0.98547366)"><tspan
         id="tspan2348"
         x="4.5610528"
         y="16.121237"
         style="font-style:normal;font-variant:normal;font-weight:normal;font-stretch:normal;font-family:AppleMyungjo;-inkscape-font-specification:AppleMyungjo;fill:#ffffff;fill-opacity:1;stroke-width:0.0627535">INTRARE</tspan></text>
  </g>
  <g
     id="layer2"
     style="display:none">
    <path
       style="fill:#f2f2f2;stroke:none;stroke-width:0.307077px;stroke-linecap:butt;stroke-linejoin:miter;stroke-opacity:1"
       d="m 30.956976,32.110521 h 6.296619 L 41,37 H 20.500001 0 l 3.7464053,-4.889479 h 6.2966197 z"
       id="path1286" />
    <path
       id="path1374-5-7-1"
       style="fill:#f9f9f9;fill-opacity:1;stroke:none;stroke-width:0.299014px;stroke-linecap:butt;stroke-linejoin:miter;stroke-opacity:1"
       d="m 34.672333,6.7007363 c 0,0 0.06909,0.7127989 -0.552688,0.7127989 -1.099512,0 -1.058445,0.7881233 -1.058445,0.7881233 l -3.377638,0.00353 c 0,0 0.04107,-0.7881112 -1.058443,-0.7881112 -0.621771,0 -0.552688,-0.7127989 -0.552688,-0.7127989 z m 0,25.4581397 c 0,0 0.06909,-0.712799 -0.552688,-0.712799 -1.099512,0 -1.058445,-0.788123 -1.058445,-0.788123 l -3.377638,-0.0035 c 0,0 0.04107,0.788111 -1.058443,0.788111 -0.621771,0 -0.552688,0.712799 -0.552688,0.712799 z M 29.688049,8.2016585 H 33.0612 V 30.657932 H 29.688049 Z M 27.421087,6.7042624 c 0,0 0.06909,0.712799 -0.552687,0.712799 -1.099513,0 -1.058445,0.7881232 -1.058445,0.7881232 l -3.377638,0.00353 c 0,0 0.04107,-0.7881111 -1.058444,-0.7881111 -0.62177,0 -0.552687,-0.712799 -0.552687,-0.712799 z m 0,25.4581396 c 0,0 0.06909,-0.712799 -0.552687,-0.712799 -1.099513,0 -1.058445,-0.788123 -1.058445,-0.788123 l -3.377638,-0.0035 c 0,0 0.04107,0.788111 -1.058444,0.788111 -0.62177,0 -0.552687,0.712799 -0.552687,0.712799 z M 22.436804,8.2051846 h 3.373151 V 30.661458 H 22.436804 Z M 20.174328,6.7042604 c 0,0 0.06909,0.7127989 -0.552688,0.7127989 -1.099512,0 -1.058444,0.7881233 -1.058444,0.7881233 l -3.377638,0.00353 c 0,0 0.04107,-0.7881112 -1.058444,-0.7881112 -0.62177,0 -0.552688,-0.7127989 -0.552688,-0.7127989 z m 0,25.4581396 c 0,0 0.06909,-0.712799 -0.552688,-0.712799 -1.099512,0 -1.058444,-0.788123 -1.058444,-0.788123 l -3.377638,-0.0035 c 0,0 0.04107,0.788111 -1.058444,0.788111 -0.62177,0 -0.552688,0.712799 -0.552688,0.712799 z M 15.190045,8.2051826 h 3.373151 V 30.661456 H 15.190045 Z M 12.927568,6.7042604 c 0,0 0.06909,0.7127989 -0.552688,0.7127989 -1.099512,0 -1.058444,0.7881233 -1.058444,0.7881233 l -3.3776391,0.00353 c 0,0 0.041068,-0.7881112 -1.0584436,-0.7881112 -0.6217706,0 -0.5526877,-0.7127989 -0.5526877,-0.7127989 z m 0,25.4581396 c 0,0 0.06909,-0.712799 -0.552688,-0.712799 -1.099512,0 -1.058444,-0.788123 -1.058444,-0.788123 l -3.3776391,-0.0035 c 0,0 0.041068,0.788111 -1.0584436,0.788111 -0.6217706,0 -0.5526877,0.712799 -0.5526877,0.712799 z M 7.9432839,8.2051826 H 11.316436 V 30.661456 H 7.9432839 Z m 21.7402781,2e-6 h 3.373151 V 30.661458 h -3.373151 z m -7.246759,0 h 3.373151 V 30.661458 h -3.373151 z m -7.246759,-2e-6 h 3.373151 V 30.661456 h -3.373151 z" />
    <path
       style="fill:#f2f2f2;fill-opacity:1;stroke:none;stroke-width:0.307077px;stroke-linecap:butt;stroke-linejoin:miter;stroke-opacity:1"
       d="M 20.5,6.7042604 H 41 L 20.5,0 1.0006785e-7,6.7042604 Z"
       id="path1286-8" />
    <path
       id="rect1502-6"
       style="fill:#ececec;fill-opacity:1;stroke:none;stroke-width:0.221635;stroke-miterlimit:4;stroke-dasharray:none"
       d="m 10.698822,8.2244845 h 0.200774 V 30.883331 h -0.200774 z m -1.5349918,0 H 9.3646053 V 30.883331 H 9.1638302 Z m 0.767496,0 H 10.132101 V 30.883331 H 9.9313262 Z m -1.5349917,0 H 8.5971091 V 30.883331 H 8.3963345 Z" />
    <path
       id="rect1502-6-7"
       style="fill:#ececec;fill-opacity:1;stroke:none;stroke-width:0.221635;stroke-miterlimit:4;stroke-dasharray:none"
       d="m 17.992437,8.2244855 h 0.200774 V 30.883331 h -0.200774 z m -1.534992,0 H 16.65822 V 30.883331 h -0.200775 z m 0.767497,0 h 0.200774 V 30.883331 h -0.200774 z m -1.534992,0 h 0.200774 V 30.883331 H 15.68995 Z" />
    <path
       id="rect1502-6-9"
       style="fill:#ececec;fill-opacity:1;stroke:none;stroke-width:0.221635;stroke-miterlimit:4;stroke-dasharray:none"
       d="m 25.206568,8.2244845 h 0.200774 V 30.883331 h -0.200774 z m -1.534992,0 h 0.200775 V 30.883331 h -0.200775 z m 0.767497,0 h 0.200774 V 30.883331 h -0.200774 z m -1.534992,0 h 0.200774 V 30.883331 h -0.200774 z" />
    <path
       id="rect1502-6-4"
       style="fill:#ececec;fill-opacity:1;stroke:none;stroke-width:0.221635;stroke-miterlimit:4;stroke-dasharray:none"
       d="m 32.4505,8.2244855 h 0.200775 V 30.883331 H 32.4505 Z m -1.534991,0 h 0.200775 V 30.883331 h -0.200775 z m 0.767496,0 h 0.200774 V 30.883331 h -0.200774 z m -1.534992,0 h 0.200775 V 30.883331 h -0.200775 z" />
  </g>
  <g
     id="layer3">
    <path
       style="fill:#ffecdb;fill-opacity:1;stroke:none;stroke-width:2.25896px;stroke-linecap:butt;stroke-linejoin:miter;stroke-opacity:1"
       d="m 900,161.04994 c -440.51446,-346.67328 -905.6892695,-14.66061 -899.94737898,0 z"
       id="path2391" />
    <path
       style="fill:#d6a16b;fill-opacity:0.225806;stroke:none;stroke-width:0.260227px;stroke-linecap:butt;stroke-linejoin:miter;stroke-opacity:1;filter:url(#filter2596)"
       d="m 100.87087,12.979034 c -47.838574,-10.5987445 -93.3254566,-0.07754 -93.4750888,0 0,0 41.6824328,-16.6857202 93.4750888,0 z"
       id="path2393"
       transform="scale(8.2903578,8.792713)" />
    <path
       style="fill:#d68d43;fill-opacity:0.33;stroke:none;stroke-width:0.257462px;stroke-linecap:butt;stroke-linejoin:miter;stroke-opacity:1;filter:url(#filter2592)"
       d="m 106.33622,17.17071 c -53.383328,-9.297086 -104.1423834,-0.06802 -104.3093588,0 0,0 46.5136488,-14.636505 104.3093588,0 z"
       id="path2393-0"
       transform="scale(8.2903578,8.792713)" />
    <path
       style="fill:#efa377;fill-opacity:0.27;stroke:none;stroke-width:0.206464px;stroke-linecap:butt;stroke-linejoin:miter;stroke-opacity:1;filter:url(#filter2600)"
       d="m 90.515401,7.448946 c -36.04678,-8.8542071 -70.321532,-0.06478 -70.434281,0 0,0 31.408066,-13.9392758 70.434281,0 z"
       id="path2393-0-4"
       transform="scale(8.2903578,8.792713)" />
    <ellipse
       style="opacity:1;fill:#ffecdb;fill-opacity:1;stroke:none;stroke-width:0.218;stroke-miterlimit:4;stroke-dasharray:none;filter:url(#filter2564)"
       id="path2435"
       cx="45.082767"
       cy="12.407334"
       rx="2.8414361"
       ry="1.4625039"
       transform="matrix(8.2534355,-0.82891783,0.78155916,8.7535534,-1.4557071,-22.918462)" />
    <ellipse
       style="fill:#ffecdb;fill-opacity:1;stroke:none;stroke-width:0.218;stroke-miterlimit:4;stroke-dasharray:none;filter:url(#filter2588)"
       id="path2435-5"
       cx="79.961639"
       cy="8.8041897"
       rx="2.8414361"
       ry="1.4625039"
       transform="matrix(8.269562,0.62239583,-0.58683636,8.7706571,-1.4557071,-22.918462)" />
    <ellipse
       style="fill:#ffecdb;fill-opacity:1;stroke:none;stroke-width:0.172313;stroke-miterlimit:4;stroke-dasharray:none;filter:url(#filter2584)"
       id="path2435-6"
       cx="73.357666"
       cy="6.4717054"
       rx="2.2802982"
       ry="1.1385915"
       transform="matrix(8.2696326,0.62134061,-0.62271207,8.7678739,-1.455707,-22.918462)" />
    <ellipse
       style="fill:#ffecdb;fill-opacity:1;stroke:none;stroke-width:0.119695;stroke-miterlimit:4;stroke-dasharray:none;filter:url(#filter2580)"
       id="path2435-6-7"
       cx="68.584213"
       cy="6.4689116"
       rx="1.538144"
       ry="0.81448132"
       transform="matrix(8.2670308,0.65913556,-0.58700633,8.7706442,-1.455707,-22.918462)" />
    <ellipse
       style="opacity:1;fill:#e57c51;fill-opacity:1;stroke:none;stroke-width:0.218;stroke-miterlimit:4;stroke-dasharray:none;filter:url(#filter2552)"
       id="path2486"
       cx="29.029226"
       cy="17.476955"
       rx="7.3763595"
       ry="3.5406525"
       transform="matrix(8.2469136,-0.8989748,0.84761358,8.7466363,-1.455707,-22.918462)" />
    <ellipse
       style="fill:#dd7145;fill-opacity:1;stroke:none;stroke-width:0.127712;stroke-miterlimit:4;stroke-dasharray:none;filter:url(#filter2540)"
       id="path2486-8"
       cx="29.00679"
       cy="17.503584"
       rx="4.3213429"
       ry="2.0742447"
       transform="matrix(8.2469136,-0.8989748,0.84761358,8.7466363,-1.455707,-22.918462)" />
  </g>
</svg>
