<svg id="visual" viewBox="0 0 900 200" width="900" height="200" xmlns="http://www.w3.org/2000/svg" xmlns:xlink="http://www.w3.org/1999/xlink" version="1.1"><rect x="0" y="0" width="900" height="200" fill="#DA662C"></rect><path d="M0 136L11.5 133.7C23 131.3 46 126.7 69 126C92 125.3 115 128.7 138.2 133.7C161.3 138.7 184.7 145.3 207.8 144C231 142.7 254 133.3 277 131.7C300 130 323 136 346 141.5C369 147 392 152 415.2 150.8C438.3 149.7 461.7 142.3 484.8 137.3C508 132.3 531 129.7 554 132.7C577 135.7 600 144.3 623 143.7C646 143 669 133 692.2 132.5C715.3 132 738.7 141 761.8 144.2C785 147.3 808 144.7 831 142C854 139.3 877 136.7 888.5 135.3L900 134L900 0L888.5 0C877 0 854 0 831 0C808 0 785 0 761.8 0C738.7 0 715.3 0 692.2 0C669 0 646 0 623 0C600 0 577 0 554 0C531 0 508 0 484.8 0C461.7 0 438.3 0 415.2 0C392 0 369 0 346 0C323 0 300 0 277 0C254 0 231 0 207.8 0C184.7 0 161.3 0 138.2 0C115 0 92 0 69 0C46 0 23 0 11.5 0L0 0Z" fill="#dd8d4b"></path><path d="M0 110L11.5 112.3C23 114.7 46 119.3 69 122.2C92 125 115 126 138.2 122C161.3 118 184.7 109 207.8 107.3C231 105.7 254 111.3 277 114C300 116.7 323 116.3 346 114.8C369 113.3 392 110.7 415.2 109.7C438.3 108.7 461.7 109.3 484.8 110C508 110.7 531 111.3 554 110.2C577 109 600 106 623 107.8C646 109.7 669 116.3 692.2 117.5C715.3 118.7 738.7 114.3 761.8 111.2C785 108 808 106 831 105C854 104 877 104 888.5 104L900 104L900 0L888.5 0C877 0 854 0 831 0C808 0 785 0 761.8 0C738.7 0 715.3 0 692.2 0C669 0 646 0 623 0C600 0 577 0 554 0C531 0 508 0 484.8 0C461.7 0 438.3 0 415.2 0C392 0 369 0 346 0C323 0 300 0 277 0C254 0 231 0 207.8 0C184.7 0 161.3 0 138.2 0C115 0 92 0 69 0C46 0 23 0 11.5 0L0 0Z" fill="#e5a066"></path><path d="M0 90L11.5 89.8C23 89.7 46 89.3 69 89.5C92 89.7 115 90.3 138.2 90.7C161.3 91 184.7 91 207.8 88.8C231 86.7 254 82.3 277 80.7C300 79 323 80 346 82.8C369 85.7 392 90.3 415.2 90.3C438.3 90.3 461.7 85.7 484.8 87C508 88.3 531 95.7 554 98.5C577 101.3 600 99.7 623 99C646 98.3 669 98.7 692.2 97.5C715.3 96.3 738.7 93.7 761.8 95.2C785 96.7 808 102.3 831 101.2C854 100 877 92 888.5 88L900 84L900 0L888.5 0C877 0 854 0 831 0C808 0 785 0 761.8 0C738.7 0 715.3 0 692.2 0C669 0 646 0 623 0C600 0 577 0 554 0C531 0 508 0 484.8 0C461.7 0 438.3 0 415.2 0C392 0 369 0 346 0C323 0 300 0 277 0C254 0 231 0 207.8 0C184.7 0 161.3 0 138.2 0C115 0 92 0 69 0C46 0 23 0 11.5 0L0 0Z" fill="#ecb382"></path><path d="M0 80L11.5 76.8C23 73.7 46 67.3 69 68.2C92 69 115 77 138.2 76.5C161.3 76 184.7 67 207.8 62.8C231 58.7 254 59.3 277 60.7C300 62 323 64 346 64.5C369 65 392 64 415.2 64.8C438.3 65.7 461.7 68.3 484.8 68.2C508 68 531 65 554 65C577 65 600 68 623 71.8C646 75.7 669 80.3 692.2 80.3C715.3 80.3 738.7 75.7 761.8 73.7C785 71.7 808 72.3 831 74.2C854 76 877 79 888.5 80.5L900 82L900 0L888.5 0C877 0 854 0 831 0C808 0 785 0 761.8 0C738.7 0 715.3 0 692.2 0C669 0 646 0 623 0C600 0 577 0 554 0C531 0 508 0 484.8 0C461.7 0 438.3 0 415.2 0C392 0 369 0 346 0C323 0 300 0 277 0C254 0 231 0 207.8 0C184.7 0 161.3 0 138.2 0C115 0 92 0 69 0C46 0 23 0 11.5 0L0 0Z" fill="#f3c69f"></path><path d="M0 56L11.5 54.2C23 52.3 46 48.7 69 47.7C92 46.7 115 48.3 138.2 49.7C161.3 51 184.7 52 207.8 53.8C231 55.7 254 58.3 277 55.3C300 52.3 323 43.7 346 43.7C369 43.7 392 52.3 415.2 55.2C438.3 58 461.7 55 484.8 51.5C508 48 531 44 554 44.3C577 44.7 600 49.3 623 49.7C646 50 669 46 692.2 46.3C715.3 46.7 738.7 51.3 761.8 51.7C785 52 808 48 831 45.2C854 42.3 877 40.7 888.5 39.8L900 39L900 0L888.5 0C877 0 854 0 831 0C808 0 785 0 761.8 0C738.7 0 715.3 0 692.2 0C669 0 646 0 623 0C600 0 577 0 554 0C531 0 508 0 484.8 0C461.7 0 438.3 0 415.2 0C392 0 369 0 346 0C323 0 300 0 277 0C254 0 231 0 207.8 0C184.7 0 161.3 0 138.2 0C115 0 92 0 69 0C46 0 23 0 11.5 0L0 0Z" fill="#fad9bc"></path><path d="M0 16L11.5 18.5C23 21 46 26 69 27.3C92 28.7 115 26.3 138.2 24.3C161.3 22.3 184.7 20.7 207.8 22.7C231 24.7 254 30.3 277 32.8C300 35.3 323 34.7 346 34.5C369 34.3 392 34.7 415.2 35.3C438.3 36 461.7 37 484.8 37.3C508 37.7 531 37.3 554 35.2C577 33 600 29 623 28.5C646 28 669 31 692.2 33C715.3 35 738.7 36 761.8 34.8C785 33.7 808 30.3 831 29.2C854 28 877 29 888.5 29.5L900 30L900 0L888.5 0C877 0 854 0 831 0C808 0 785 0 761.8 0C738.7 0 715.3 0 692.2 0C669 0 646 0 623 0C600 0 577 0 554 0C531 0 508 0 484.8 0C461.7 0 438.3 0 415.2 0C392 0 369 0 346 0C323 0 300 0 277 0C254 0 231 0 207.8 0C184.7 0 161.3 0 138.2 0C115 0 92 0 69 0C46 0 23 0 11.5 0L0 0Z" fill="#ffecdb"></path></svg>